<?xml version="1.0" encoding="UTF-8" standalone="no"?>
<svg
   xmlns="http://www.w3.org/2000/svg"
   width="100"
   height="100"
   viewBox="0 0 100 100">
  <path
     d="M 29.289386,1.0851549e-6 -5.9542598e-7,29.289386 V 70.710614 L 29.289386,100 H 70.71062 L 100,70.710614 V 29.289386 L 70.71062,1.0851549e-6 Z"
     style="opacity:1;fill:#ff0000;fill-opacity:1;fill-rule:evenodd;stroke:none;stroke-width:1.24795604;stroke-linecap:square;stroke-linejoin:miter;stroke-miterlimit:4;stroke-dasharray:none;stroke-dashoffset:0;stroke-opacity:1"
     />
  <path
     d="m 47.596815,10.018671 c -2.817914,0 -5.086318,2.268724 -5.086318,5.086642 v 33.01626 c -0.453619,0.244422 -0.898647,0.50448 -1.334298,0.779687 V 22.699644 c 0,-2.817917 -2.268401,-5.086317 -5.086318,-5.086317 -2.817916,0 -5.08664,2.2684 -5.08664,5.086317 V 51.872512 L 24.39912,44.655887 c -1.90239,-2.078839 -4.689139,-3.005439 -7.044232,-1.458119 -2.355087,1.547323 -3.005116,4.689138 -1.457793,7.044234 0,0 6.068785,8.165468 8.721572,12.497872 2.57049,4.197993 6.944345,13.032717 6.944345,13.032717 1.179782,3.19002 3.906005,5.651732 6.366769,7.999657 0.541875,0.792389 1.266713,1.384562 2.080116,1.756702 3.85183,2.881232 8.530518,4.442717 13.340708,4.452385 12.341899,-9.5e-5 22.346958,-10.005153 22.347049,-22.347045 -0.0031,-0.422751 -0.01776,-0.845329 -0.04479,-1.26723 0.02872,-0.219591 0.04479,-0.443036 0.04479,-0.670696 V 25.671343 c 0,-2.817919 -2.268401,-5.086321 -5.086318,-5.086321 -2.817917,0 -5.086643,2.268402 -5.086643,5.086321 V 48.918026 C 65.089617,48.629837 64.644577,48.356989 64.190395,48.09997 V 18.077009 c 0,-2.817919 -2.268404,-5.086319 -5.086318,-5.086319 -2.817917,0 -5.086639,2.2684 -5.086639,5.086319 v 27.243122 c -0.222085,-0.01436 -0.444404,-0.02532 -0.666833,-0.03326 -0.222501,0.0045 -0.444888,0.01247 -0.667144,0.02343 V 15.105313 c 0,-2.817918 -2.268729,-5.086642 -5.086646,-5.086642 z"
     style="opacity:1;fill:#ffffff;fill-opacity:1;fill-rule:evenodd;stroke:none;stroke-width:1.49309027;stroke-linecap:square;stroke-linejoin:miter;stroke-miterlimit:4;stroke-dasharray:none;stroke-dashoffset:0;stroke-opacity:1"
     />
  <path
     style="opacity:1;fill:none;fill-opacity:1;fill-rule:evenodd;stroke:#ffffff;stroke-width:1.14928889;stroke-linecap:square;stroke-linejoin:miter;stroke-miterlimit:4;stroke-dasharray:none;stroke-dashoffset:0;stroke-opacity:1"
     d="M 30.926829,3.9531552 3.9531564,30.926829 V 69.073171 L 30.926829,96.046841 H 69.073174 L 96.046845,69.073171 V 30.926829 L 69.073174,3.9531552 Z"
     />
</svg>
